<svg xmlns="http://www.w3.org/2000/svg" viewBox="0 0 293.21 248.6"><defs><style>.cls-1{fill:#144652;}</style></defs><g id="Layer_2" data-name="Layer 2"><g id="Layer_1-2" data-name="Layer 1"><path class="cls-1" d="M111.37,149.71a15.71,15.71,0,0,1-12.81,15.42,78,78,0,0,1-14.44,1.39c-13.43,0-24.49-3.42-33.18-11.72-7.64-7.37-12.38-19.22-12.38-33.05.13-26.46,18.3-45.82,48.06-45.82,10.27,0,18.3,2.24,22.12,4.08h0a9.52,9.52,0,0,1-11.09,6.63,53.6,53.6,0,0,0-11.3-1.1c-21.59,0-35.68,13.43-35.68,35.69,0,22.51,13.56,35.81,34.24,35.81a59.08,59.08,0,0,0,9.08-.63,7.34,7.34,0,0,0,6.19-7.26v-21h-18A9.21,9.21,0,0,1,91.36,119h20ZM129,135.84c.26,15.67,10.27,22.12,21.86,22.12a50.11,50.11,0,0,0,10.3-1,7.94,7.94,0,0,1,9.32,6h0c-4.08,1.84-11.06,3.95-21.2,3.95-19.62,0-31.34-12.91-31.34-32.13s11.32-34.37,29.89-34.37c20.8,0,26.33,18.3,26.33,30a44.2,44.2,0,0,1-.39,5.4Zm34-8.29c.13-7.38-3-18.83-16.06-18.83-11.72,0-16.86,10.79-17.78,18.83Zm19.13-55.44h11.58V154a11.58,11.58,0,0,1-11.58,11.59h0Zm23,0h11.59V154a11.59,11.59,0,0,1-11.59,11.59h0Zm71.53,11.46v18.3h16.59v8.82H276.62v34.37c0,7.9,2.24,12.38,8.69,12.38a25.89,25.89,0,0,0,6.71-.79h0a9.67,9.67,0,0,1-9.59,10.27h-.15c-5.4,0-9.74-1.72-12.51-4.88-3.29-3.42-4.48-9.08-4.48-16.59V110.69h-9.87v-8.82h9.87V91.48A6.36,6.36,0,0,1,270,85.34ZM246.55,101.7l-11.8,2.82a112.94,112.94,0,0,1-4.57,57h0A11,11,0,0,0,245,154a125.3,125.3,0,0,0,1.52-52.27ZM124.3,236.49a112.36,112.36,0,0,1-104-70.14q-1.92-4.74-3.41-9.69a112.7,112.7,0,0,1,1.43-69.12A110.25,110.25,0,0,1,23,76,112.24,112.24,0,0,1,217.15,61.3a13.48,13.48,0,0,0,16.9,4.6h0A124.35,124.35,0,0,0,11.78,71.41Q9.14,77,7.05,82.92a125.16,125.16,0,0,0-4.91,64.46,121.17,121.17,0,0,0,2.91,12.1,124.1,124.1,0,0,0,4.23,12,122.83,122.83,0,0,0,5.3,11.25,124.34,124.34,0,0,0,222-5.16h0a13.58,13.58,0,0,0-16.73,5.46A112.11,112.11,0,0,1,124.3,236.49ZM243.8,84.65a6.87,6.87,0,0,0-7.11-7.24,7.06,7.06,0,0,0-7.24,7.24,6.89,6.89,0,0,0,7,7.11C241,91.76,243.93,88.6,243.8,84.65ZM189.56,189.41a92.11,92.11,0,0,1-55.74,26.76,10.63,10.63,0,0,0-9.47,10.59v2a104.25,104.25,0,0,0,81-38.88l-1.92-1.45A10.55,10.55,0,0,0,189.56,189.41ZM93,222.83,92.69,224a104.27,104.27,0,0,0,10.64,2.73A10.59,10.59,0,0,0,116,216.34h0a93.33,93.33,0,0,1-10.53-1.52A10.61,10.61,0,0,0,93,222.83Z"/></g></g></svg>