<svg xmlns="http://www.w3.org/2000/svg" viewBox="0 0 121.22 146.95"><defs><style>.cls-1{fill:#fff;}.cls-2{fill:#f6a31a;}.cls-3,.cls-7{fill:none;}.cls-3,.cls-4,.cls-5,.cls-6,.cls-7{stroke:#144652;stroke-miterlimit:10;}.cls-3{stroke-width:7.22px;}.cls-4,.cls-6{fill:#f6a316;}.cls-4{stroke-width:5.02px;}.cls-5{fill:#36a9e1;stroke-width:6.07px;}.cls-6,.cls-7{stroke-linecap:round;stroke-width:5.02px;}</style></defs><g id="Layer_2" data-name="Layer 2"><g id="Layer_1-2" data-name="Layer 1"><path class="cls-1" d="M116.23,69.43c-.89,6.89-2,15.46-4.43,23-2.67,8.23-12.22,31.38-50.8,50.6-38.59-19.22-48.12-42.37-50.8-50.6-2.44-7.5-3.55-16.07-4.44-23a211.06,211.06,0,0,1-.83-47c4.07-4.1,13-9,27.2-13.43C44.51,5.18,55.22,3.12,61,3.82,66.78,3.12,77.48,5.18,89.87,9c14.19,4.43,23.13,9.33,27.2,13.43A210.57,210.57,0,0,1,116.23,69.43Z"/><path class="cls-2" d="M7.91,77a77.67,77.67,0,0,0,10.4,31.47c13.18,22.15,33.72,30.9,40.82,33.56a81.6,81.6,0,0,0,56.14-65.56Z"/><path class="cls-3" d="M115.84,69.35c-.89,6.89-2,15.46-4.43,23-2.67,8.23-12.22,31.38-50.8,50.6C22,123.69,12.49,100.54,9.81,92.31c-2.44-7.5-3.55-16.07-4.44-23a211.06,211.06,0,0,1-.83-47c4.07-4.1,13-9,27.2-13.43C44.13,5.1,54.83,3.05,60.61,3.75,66.39,3.05,77.09,5.1,89.48,9c14.19,4.43,23.13,9.33,27.21,13.43A211.29,211.29,0,0,1,115.84,69.35Z"/><line class="cls-4" x1="6.8" y1="77.02" x2="44.75" y2="77.02"/><line class="cls-4" x1="77.59" y1="77.02" x2="113.56" y2="77.02"/><polyline class="cls-4" points="12.52 94.47 22.23 94.47 30.56 90.04 40.55 90.04"/><polyline class="cls-4" points="45.66 101.17 37.78 108.33 18.9 108.33"/><polyline class="cls-4" points="61.08 108.33 61 121.34 44.75 121.34 34.71 126.15"/><polyline class="cls-4" points="72.3 104.97 77.59 113 97.18 113"/><polyline class="cls-4" points="62.2 114.3 77.59 121.34 77.59 132.82"/><polyline class="cls-4" points="80.49 84.3 97.18 84.3 100.23 90.04 112.51 90.04"/><polyline class="cls-4" points="80.49 97.08 85.8 101.17 106.34 101.17"/><path class="cls-5" d="M86.18,91.56C86.18,103,74.9,112.2,61,112.2S35.82,103,35.82,91.56,58.86,33.69,62,33.69C64.44,33.69,86.18,80.17,86.18,91.56Z"/><line class="cls-6" x1="32.28" y1="47.78" x2="36.94" y2="50.13"/><line class="cls-6" x1="34.71" y1="30.56" x2="43.61" y2="37.87"/><line class="cls-6" x1="52.21" y1="20.13" x2="54.43" y2="27.43"/><line class="cls-6" x1="90.49" y1="47.78" x2="85.83" y2="50.13"/><line class="cls-6" x1="88.06" y1="30.56" x2="79.17" y2="37.87"/><line class="cls-6" x1="70.56" y1="20.13" x2="68.34" y2="27.43"/><path class="cls-7" d="M45.66,81.78c-.39.94-4,7.62-.11,14.09,3.39,5.65,10.41,8.86,17.77,8.08"/><path class="cls-7" d="M71.64,100.26a12,12,0,0,0,5.28-5.48,11,11,0,0,0,.27-8.35"/></g></g></svg>