<svg xmlns="http://www.w3.org/2000/svg" viewBox="0 0 125.76 152.01"><defs><style>.cls-1,.cls-4{fill:#f6a31a;}.cls-1,.cls-2,.cls-3{stroke:#144652;stroke-width:5.97px;}.cls-1,.cls-3{stroke-linecap:round;}.cls-1{stroke-linejoin:round;}.cls-2{fill:#3aaa35;}.cls-2,.cls-3{stroke-miterlimit:10;}.cls-3{fill:none;}.cls-5{fill:#3b8d9e;}</style></defs><g id="Layer_2" data-name="Layer 2"><g id="Layer_1-2" data-name="Layer 1"><line class="cls-1" x1="62.32" y1="82.91" x2="62.32" y2="36.57"/><path class="cls-2" d="M49.86,50.72c2.77-.86,5.87,1.18,6.93,4.56s-.34,6.83-3.11,7.69-15.83-1.21-16.07-2C37.43,60.4,47.09,51.59,49.86,50.72Z"/><path class="cls-2" d="M56.86,26.45c2.38,1.66,2.67,5.36.64,8.27s-5.6,3.92-8,2.26-8.74-13.25-8.28-13.91S54.48,24.79,56.86,26.45Z"/><path class="cls-3" d="M62,50.94a25.84,25.84,0,0,0-24.4-10.53"/><path class="cls-2" d="M35.36,28.61c2,2.13,1.47,5.81-1.13,8.22s-6.3,2.64-8.28.51S20.22,22.54,20.81,22,33.38,26.48,35.36,28.61Z"/><path class="cls-2" d="M26.64,45.13c1.57-2.44,5.26-2.87,8.24-1s4.13,5.45,2.56,7.89-12.9,9.24-13.58,8.81C23.34,60.53,25.07,47.57,26.64,45.13Z"/><path class="cls-2" d="M75,50.09c-2.77-.86-5.88,1.18-6.93,4.56s.34,6.83,3.11,7.69,15.83-1.22,16.06-2C87.43,59.77,77.77,51,75,50.09Z"/><path class="cls-2" d="M68,25.81c-2.39,1.66-2.67,5.37-.65,8.27s5.6,3.92,8,2.26,8.75-13.25,8.29-13.91C83.26,21.93,70.38,24.15,68,25.81Z"/><path class="cls-3" d="M62.88,50.31A25.84,25.84,0,0,1,87.29,39.78"/><path class="cls-2" d="M89.5,28c-2,2.13-1.47,5.81,1.12,8.22s6.31,2.64,8.28.51,5.73-14.8,5.14-15.35S91.47,25.85,89.5,28Z"/><path class="cls-2" d="M98.21,44.5c-1.56-2.45-5.25-2.88-8.24-1S85.85,49,87.41,51.43s12.91,9.24,13.59,8.81C101.52,59.9,99.78,46.94,98.21,44.5Z"/><path class="cls-2" d="M68.73,17.53c.09,2.91-2.71,5.35-6.25,5.46s-6.48-2.15-6.57-5S61.31,3,62.12,3C62.73,3,68.64,14.63,68.73,17.53Z"/><path class="cls-3" d="M62.77,104.8a25.84,25.84,0,0,0,24.41,10.53"/><path class="cls-3" d="M61.87,105.43A25.84,25.84,0,0,1,37.46,116"/><path class="cls-3" d="M119.6,122.18c-7.84,16.51-30.54,27.53-56.46,26.77v0c-26.13.91-49.08-10.14-57-26.76-6.21-13.07-3-29.36,7.07-39.31,2.73-2.69,7.31-7.23,13.94-7.6S37.37,79,48.39,82.24A74.24,74.24,0,0,0,62.68,85a74.76,74.76,0,0,0,14.7-2.8c11-3.28,14.62-7.3,21.21-6.93s11.22,4.91,13.94,7.6C122.62,92.82,125.81,109.11,119.6,122.18Z"/><path class="cls-3" d="M62.24,84.86c-.11,16.24-.22,35.65-.33,51.89"/><path class="cls-3" d="M62.56,90.71a39,39,0,0,0,16,12.16,42.25,42.25,0,0,0,21.13,2.82"/><path class="cls-3" d="M61.17,91.61a39,39,0,0,1-16,12.16A42.3,42.3,0,0,1,24,106.59"/><path class="cls-3" d="M62.2,121.63a19.07,19.07,0,0,0,18,7.78"/><path class="cls-3" d="M61.53,122.1a19.13,19.13,0,0,1-18,7.78"/><circle class="cls-4" cx="30.96" cy="92.38" r="4.35"/><circle class="cls-4" cx="95.05" cy="99.65" r="2.92"/><circle class="cls-4" cx="83.21" cy="138.24" r="2.98"/><circle class="cls-4" cx="35.58" cy="125.2" r="3.57"/><circle class="cls-4" cx="82.38" cy="91.28" r="4.9"/><circle class="cls-4" cx="74.09" cy="121.35" r="4.25"/><circle class="cls-4" cx="53.59" cy="140.68" r="3.93"/><circle class="cls-4" cx="46.98" cy="93.53" r="1.92"/><circle class="cls-4" cx="23.44" cy="113.5" r="2.69"/><circle class="cls-4" cx="102.46" cy="117.35" r="2.73"/><circle class="cls-5" cx="40.63" cy="87.85" r="1.48"/><circle class="cls-5" cx="46.3" cy="108.93" r="1.25"/><circle class="cls-5" cx="51.27" cy="121.31" r="1.24"/><circle class="cls-5" cx="40.63" cy="138.23" r="1.48"/><circle class="cls-5" cx="71.32" cy="136.76" r="1.49"/><circle class="cls-5" cx="90.85" cy="124.08" r="1.53"/><circle class="cls-5" cx="92.38" cy="133.16" r="1.53"/><circle class="cls-5" cx="95.25" cy="114.84" r="1.34"/><circle class="cls-5" cx="93.81" cy="86.98" r="1.43"/><circle class="cls-5" cx="72.65" cy="105.48" r="1.44"/><circle class="cls-5" cx="71.82" cy="90.4" r="1.98"/><circle class="cls-5" cx="109.48" cy="93.53" r="1.34"/><circle class="cls-5" cx="101.09" cy="128.78" r="1.34"/><circle class="cls-5" cx="18.13" cy="92.19" r="1.34"/><circle class="cls-5" cx="22.42" cy="128.23" r="1.34"/><circle class="cls-5" cx="11.53" cy="106.92" r="1.34"/><circle class="cls-5" cx="114.43" cy="108.93" r="1.34"/></g></g></svg>