<svg xmlns="http://www.w3.org/2000/svg" viewBox="0 0 166.22 148.8"><defs><style>.cls-1{fill:#f6a31a;}.cls-1,.cls-10,.cls-2,.cls-3,.cls-8,.cls-9{stroke:#144652;stroke-linecap:round;}.cls-1,.cls-10,.cls-2,.cls-8,.cls-9{stroke-linejoin:round;}.cls-1,.cls-9{stroke-width:5.97px;}.cls-2{fill:#fff;}.cls-2,.cls-8{stroke-width:6.21px;}.cls-3,.cls-8,.cls-9{fill:none;}.cls-3{stroke-miterlimit:10;stroke-width:7.22px;}.cls-10,.cls-4{fill:#144652;}.cls-5{fill:#33747a;}.cls-6{fill:#2f7d87;}.cls-7{fill:#3b8d9e;}.cls-10{stroke-width:5.97px;}</style></defs><g id="Layer_2" data-name="Layer 2"><g id="Layer_1-2" data-name="Layer 1"><path class="cls-1" d="M16.21,103.18c.18-10.25.23-5.89,7.45-10.14,4.15-2.44,7.85-1.54,14.6-3,6.17-1.37,6.3-5.13,11.48-6.52,5.91-1.59,8.47,2,17,3.91,12.4,2.77,23.5-1.21,27.39-2.61,12-4.32,11.53-9.28,18-8.87,10.31.66,15,13.48,25,12,2-.3,4.4-1.2,7.05,0,3,1.35,4.33,4.44,5.48,7,1,2.23,2.08,3.26.13,7.17-4.88,9.77-6.83,10.49-7.7,11.73a78.32,78.32,0,0,1-35.7,27.32,72,72,0,0,1-41.88,1.56,74.12,74.12,0,0,1-37.67-25c-7.47-9.38-5.42-4.7-7.23-10.66C19.8,106.19,16,104.08,16.21,103.18Z"/><path class="cls-2" d="M110.49,77.35a29.86,29.86,0,0,1,1.42,9.16,29.3,29.3,0,0,1-.72,6.53H52.1a29.3,29.3,0,0,1-.72-6.53A30.28,30.28,0,0,1,71.91,57.86a30.06,30.06,0,0,0,1.46-9.29,28.82,28.82,0,0,0-.55-5.69,30.3,30.3,0,0,1-20.9-23.27A30.05,30.05,0,0,1,52.1,7.4h59.09a29.82,29.82,0,0,1,.19,12.11A30.26,30.26,0,0,1,90.12,43a29.33,29.33,0,0,0-.53,5.58A30.18,30.18,0,0,0,91,57.73a30.26,30.26,0,0,1,19.48,19.62Z"/><path class="cls-3" d="M9.93,82.57C17.24,115,41.16,145.2,80.62,145.19c45.47,0,68.55-30,75.62-63.66"/><polygon class="cls-4" points="0 87.35 7.71 67.18 21.33 83.94 0 87.35"/><polygon class="cls-4" points="166.22 86.26 158.37 66.14 144.87 83 166.22 86.26"/><rect class="cls-5" x="72.74" y="42.88" width="16.91" height="12.56"/><polygon class="cls-6" points="56.94 28.91 67.18 40.55 73.74 46.57 88.87 46.57 94.53 41.28 106.35 31.3 56.94 28.91"/><polygon class="cls-7" points="51.84 19.61 111.3 19.51 102.69 35.6 60.76 35.9 51.84 19.61"/><path class="cls-8" d="M110.41,77.35a29.86,29.86,0,0,1,1.42,9.16,29.3,29.3,0,0,1-.72,6.53H52a29.3,29.3,0,0,1-.72-6.53A30.28,30.28,0,0,1,71.83,57.86a30.06,30.06,0,0,0,1.46-9.29,28.82,28.82,0,0,0-.55-5.69,30.3,30.3,0,0,1-20.9-23.27A30.05,30.05,0,0,1,52,7.4h59.09a29.82,29.82,0,0,1,.19,12.11A30.26,30.26,0,0,1,90,43a29.33,29.33,0,0,0-.53,5.58,30.18,30.18,0,0,0,1.42,9.17,30.26,30.26,0,0,1,19.48,19.62Z"/><rect class="cls-9" x="47.26" y="2.99" width="68.61" height="1.57"/><rect class="cls-9" x="47.26" y="94.95" width="68.61" height="1.57"/><circle class="cls-4" cx="82.58" cy="65.45" r="4.53"/><circle class="cls-4" cx="73.17" cy="80.4" r="5.43"/><circle class="cls-4" cx="85.88" cy="75.9" r="2.65"/><circle class="cls-4" cx="70.25" cy="107.09" r="6.23"/><circle class="cls-10" cx="91.7" cy="121.92" r="2.04"/><circle class="cls-4" cx="88.47" cy="107.09" r="3.9"/><circle class="cls-10" cx="64.72" cy="129.32" r="2.46"/><circle class="cls-4" cx="76.01" cy="119.87" r="3.7"/><circle class="cls-10" cx="103.45" cy="129.32" r="2.84"/><circle class="cls-10" cx="101.13" cy="109.44" r="1.56"/><circle class="cls-4" cx="93.71" cy="81.23" r="3.16"/><circle class="cls-4" cx="37.81" cy="106.18" r="2.87"/><circle class="cls-4" cx="48.54" cy="114.04" r="4.6"/><circle class="cls-4" cx="114.99" cy="113.93" r="3.16"/><circle class="cls-4" cx="125.06" cy="104.37" r="3.51"/><circle class="cls-4" cx="83.04" cy="133.05" r="2.64"/><path class="cls-4" d="M126.89,118.94a2.8,2.8,0,1,1-2.8-2.8A2.8,2.8,0,0,1,126.89,118.94Z"/></g></g></svg>